<?xml version="1.0" standalone="no"?>
<!DOCTYPE svg PUBLIC "-//W3C//DTD SVG 20010904//EN"
 "http://www.w3.org/TR/2001/REC-SVG-20010904/DTD/svg10.dtd">
<svg version="1.0" xmlns="http://www.w3.org/2000/svg"
 width="1536.000000pt" height="1024.000000pt" viewBox="0 0 1536.000000 1024.000000"
 preserveAspectRatio="xMidYMid meet">

<g transform="translate(0.000000,1024.000000) scale(0.100000,-0.100000)"
fill="#000000" stroke="none">
<path d="M4078 6258 c-8 -7 -71 -101 -138 -208 -229 -365 -562 -903 -567 -917
-3 -8 0 -19 8 -24 8 -5 107 -9 220 -9 183 0 209 2 227 18 10 9 121 184 244
387 446 734 442 726 431 744 -9 14 -39 16 -209 19 -150 2 -204 -1 -216 -10z"/>
<path d="M10546 6139 c-84 -29 -158 -80 -209 -144 -31 -39 -99 -177 -238 -481
-235 -514 -228 -497 -228 -558 -1 -92 65 -164 173 -186 32 -6 184 -9 406 -8
l355 3 48 99 c27 55 49 111 50 125 l2 26 -256 5 c-288 6 -295 7 -286 70 3 19
46 119 96 222 l90 188 323 2 323 3 63 124 c49 96 60 127 51 137 -9 11 -68 14
-305 14 l-294 0 99 134 c133 179 154 213 147 231 -4 13 -32 15 -178 14 -145 0
-182 -4 -232 -20z"/>
<path d="M6160 5769 c-145 -17 -272 -78 -359 -173 -46 -51 -96 -149 -285 -569
-59 -131 -105 -244 -102 -252 4 -13 40 -15 214 -15 238 0 221 -6 264 95 14 33
76 173 137 310 121 271 149 313 227 334 22 6 124 11 227 11 280 0 288 -7 208
-202 -27 -68 -82 -197 -122 -288 -84 -194 -97 -231 -92 -247 4 -10 53 -13 204
-13 l198 0 17 32 c44 86 285 686 293 733 24 129 -53 219 -209 244 -75 12 -721
13 -820 0z"/>
<path d="M7755 5771 c-202 -26 -349 -119 -419 -268 -16 -32 -67 -150 -114
-263 -80 -188 -87 -211 -87 -272 0 -59 3 -70 31 -105 77 -96 141 -106 607
-100 393 5 439 11 563 72 80 39 158 111 196 182 60 110 211 489 216 539 7 87
-43 159 -137 196 -54 21 -72 22 -426 24 -203 1 -397 -1 -430 -5z m535 -271
c11 -11 20 -27 20 -36 0 -10 -32 -92 -70 -183 -110 -258 -119 -264 -430 -259
-272 4 -268 -2 -164 239 74 173 92 202 137 226 56 29 79 31 285 32 189 1 203
0 222 -19z"/>
<path d="M9272 5769 c-131 -17 -221 -58 -305 -137 -64 -61 -91 -109 -175 -307
-44 -105 -112 -264 -151 -355 -39 -91 -70 -174 -69 -185 3 -19 12 -20 204 -23
153 -2 204 1 212 10 5 7 58 125 116 261 157 365 179 411 212 434 57 39 88 43
358 43 144 0 266 4 273 8 6 4 33 56 59 115 37 84 45 113 37 125 -9 15 -46 17
-359 18 -192 1 -377 -2 -412 -7z"/>
<path d="M4558 5640 c-9 -6 -90 -121 -181 -258 -90 -136 -228 -344 -307 -462
-78 -118 -169 -258 -202 -309 -56 -88 -59 -96 -42 -108 13 -10 72 -13 235 -13
192 0 219 2 237 18 21 18 284 423 551 850 101 161 151 250 149 265 -3 22 -5
22 -213 24 -124 2 -217 -1 -227 -7z"/>
</g>
</svg>
